<svg width="18" height="18" viewBox="0 0 18 18" fill="none" xmlns="http://www.w3.org/2000/svg">
<path d="M6.53025 14.7819L13.5 7.81218L10.1895 4.50168L3.21975 11.4714C3.1238 11.5675 3.05564 11.6878 3.0225 11.8194L2.25 15.7517L6.1815 14.9792C6.3135 14.9462 6.43425 14.8779 6.53025 14.7819ZM15.75 5.56218C16.0312 5.28089 16.1892 4.89943 16.1892 4.50168C16.1892 4.10393 16.0312 3.72247 15.75 3.44118L14.5605 2.25168C14.2792 1.97047 13.8977 1.8125 13.5 1.8125C13.1023 1.8125 12.7208 1.97047 12.4395 2.25168L11.25 3.44118L14.5605 6.75168L15.75 5.56218Z" fill="#B8B7B7"/>
</svg>
